<?xml version="1.0" encoding="utf-8"?>
<!-- Generator: Adobe Illustrator 19.0.0, SVG Export Plug-In . SVG Version: 6.00 Build 0)  -->
<svg version="1.1" id="Layer_1" xmlns="http://www.w3.org/2000/svg" xmlns:xlink="http://www.w3.org/1999/xlink" x="0px" y="0px"
	 viewBox="0 0 175 180" style="enable-background:new 0 0 175 180;" xml:space="preserve">
<style type="text/css">
	.st0{fill:#654332;}
	.st1{fill:#F7941E;}
</style>
<g id="XMLID_27_">
	<g>
		<polygon class="st0" points="154.1,28.9 154.1,42.2 152.2,42.2 146.3,42.2 29.4,42.2 23.5,42.2 21.6,42.2 21.6,28.9 		"/>
		<path class="st1" d="M154.1,18.1v7.8H21.6v-7.8h43.8v-18h45v18H154.1z M103.8,18.1V8.5H71.9v9.6H103.8z"/>
		<polygon class="st0" points="152.2,42.2 152.2,180.3 23.5,180.3 23.5,42.2 29.4,42.2 29.4,174.4 146.3,174.4 146.3,42.2 		"/>
		<rect x="105.1" y="145.8" class="st0" width="25.8" height="7"/>
		<rect x="105.1" y="112.8" class="st0" width="25.8" height="7"/>
		<rect x="105.1" y="69.2" class="st0" width="25.8" height="7"/>
		<polygon class="st1" points="90.3,60.9 58.5,98.7 38.3,74.9 45,69.2 58.5,85 83.5,55.2 		"/>
		<polygon class="st1" points="90.3,96.2 58.5,134 38.3,110.2 45,104.5 58.5,120.3 83.5,90.5 		"/>
		<polygon class="st1" points="90.3,132.1 58.5,169.9 38.3,146.1 45,140.4 58.5,156.2 83.5,126.4 		"/>
	</g>
</g>
</svg>
