<?xml version="1.0" encoding="utf-8"?>
<!-- Generator: Adobe Illustrator 19.0.0, SVG Export Plug-In . SVG Version: 6.00 Build 0)  -->
<svg version="1.1" id="Layer_1" xmlns="http://www.w3.org/2000/svg" xmlns:xlink="http://www.w3.org/1999/xlink" x="0px" y="0px"
	 viewBox="0 0 175 190" style="enable-background:new 0 0 175 190;" xml:space="preserve">
<style type="text/css">
	.st0{fill:#654332;}
	.st1{fill:#F7941E;}
</style>
<g id="XMLID_48_">
	<g>
		<path class="st0" d="M170.9,71.2v30.6c0,6.4-4.9,11.5-10.9,11.5H15.9c-6,0-10.9-5.1-10.9-11.5V71.2H170.9z M97.6,94.3v-7.9
			c0-3.4-2.6-6.2-5.9-6.2h-7.5c-3.2,0-5.9,2.8-5.9,6.2v7.9c0,3.4,2.6,6.2,5.9,6.2h7.5C95,100.5,97.6,97.7,97.6,94.3z"/>
		<polygon id="XMLID_61_" class="st1" points="170.9,68.2 88,68.2 5,68.2 27.9,49.6 53.8,49.6 55.4,49.6 114.8,49.6 122.2,49.6 
			148,49.6 		"/>
		<path class="st1" d="M162.6,117.1v46.4H13.4v-46.4H162.6z M116,132.8h16.3c-2.6-5.5-7.9-9.2-14.1-9.2c-7.4,0-13.5,5.3-15.3,12.4
			H73.1c-1.8-7.2-7.9-12.4-15.3-12.4c-6.2,0-11.5,3.7-14.1,9.2H60v14.8H43.7c2.6,5.5,7.9,9.2,14.1,9.2c7.3,0,13.5-5.3,15.3-12.5
			h29.7c1.8,7.2,7.9,12.5,15.3,12.5c6.2,0,11.5-3.8,14.1-9.2H116V132.8z"/>
		<path id="XMLID_58_" class="st0" d="M155.5,166.3v0.7c0,4.4-3.4,7.9-7.5,7.9H28c-4.2,0-7.5-3.6-7.5-7.9v-0.7H155.5z"/>
		<path id="XMLID_57_" class="st0" d="M120.5,34.8V47h-5.8V34.8v-1.5c0-0.2,0-0.4-0.1-0.7c-0.1-0.4-0.4-0.9-0.8-1.4
			c-0.8-0.9-2.2-1.7-3.6-2.2c-0.7-0.2-1.5-0.4-2.3-0.5c-0.4,0-0.8-0.1-1.2-0.1h-0.3v-6.1h0.3c0.6,0,1.1,0,1.7,0.1
			c1.1,0.1,2.3,0.3,3.4,0.7c2.2,0.7,4.4,1.9,6.2,3.9c0.9,1,1.7,2.3,2.1,3.8c0.2,0.7,0.3,1.6,0.3,2.3V34.8z"/>
		<polygon id="XMLID_56_" class="st1" points="104.2,28.5 104.2,32.3 71.7,32.3 71.7,22.5 71.7,19.3 104.2,19.3 		"/>
		<path id="XMLID_55_" class="st1" d="M90.1,86.2v8.2c0,1.2-0.9,2.2-2.1,2.2c-0.6,0-1.1-0.3-1.5-0.6c-0.4-0.4-0.6-0.9-0.6-1.6v-8.2
			c0-1.2,0.9-2.2,2.1-2.2c0.6,0,1.1,0.2,1.5,0.6C89.8,85.1,90.1,85.6,90.1,86.2z"/>
		<path id="XMLID_54_" class="st0" d="M69.1,22.5h0.3v6.1h-0.3c-0.4,0-0.8,0-1.2,0.1c-0.8,0.1-1.6,0.2-2.3,0.5
			c-1.5,0.5-2.8,1.2-3.6,2.2c-0.4,0.5-0.7,1-0.8,1.4c-0.1,0.2-0.1,0.4-0.1,0.7v1.5V47h-5.8V34.8v-1.5c0-0.8,0.1-1.6,0.3-2.3
			c0.4-1.5,1.2-2.8,2.1-3.8c1.8-2.1,4-3.2,6.2-3.9c1.1-0.3,2.2-0.6,3.4-0.7C68,22.5,68.6,22.5,69.1,22.5z"/>
	</g>
</g>
</svg>
